<svg xmlns="http://www.w3.org/2000/svg" viewBox="0 0 281.57 377.88"><defs><style>.cls-1{fill:#f5ae78;}.cls-1,.cls-10,.cls-2,.cls-3,.cls-4,.cls-6,.cls-7,.cls-8,.cls-9{stroke:#231815;stroke-linecap:round;stroke-linejoin:round;stroke-width:3px;}.cls-2{fill:#db5c39;}.cls-3{fill:none;}.cls-4{fill:#ffcfae;}.cls-5{fill:#231815;}.cls-6{fill:#cb3617;}.cls-7{fill:#bf472c;}.cls-8{fill:#fff;}.cls-9{fill:#ff9920;}.cls-10{fill:#e15c3d;}</style></defs><title>鸡鸭 (2)</title><g id="图层_2" data-name="图层 2"><g id="物件"><g id="鸡鸭"><g id="箱子"><polygon class="cls-1" points="45.94 129.92 28.84 138.02 176.4 191.89 253.83 126.91 117.06 98.7 45.94 129.92"/><polygon class="cls-2" points="45.02 134.78 173.82 178.25 232.91 130.38 116.34 103.95 45.02 134.78"/><polygon class="cls-1" points="28.84 138.02 33.12 301.83 176.4 376.38 176.4 191.89 28.84 138.02"/><polygon class="cls-1" points="176.4 191.89 253.83 126.91 252.95 304.22 176.4 376.38 176.4 191.89"/><circle class="cls-2" cx="56.89" cy="256.76" r="9.82"/><circle class="cls-2" cx="97.74" cy="271.99" r="9.82"/><circle class="cls-2" cx="141.33" cy="286.86" r="9.82"/><path class="cls-3" d="M194.28,258.92l30.1-21.32s6.48-4.92,6.79,2S229,266.27,217,274.6s-23.33-.92-24.5-7.63C192,264.08,192,260.57,194.28,258.92Z"/><path class="cls-2" d="M224.38,237.6s.89,34.53-25.38,37.92c0,0-10.33-6.17-5.66-15.68C200.21,254.72,224.38,237.6,224.38,237.6Z"/><path class="cls-2" d="M176.4,191.89v8.71L204,226.5s5.93,5.55,11.17,0,64.94-63.82,64.94-63.82v-10.1l-26.24-25.67Z"/><path class="cls-1" d="M176.4,191.89l30.41,27.4s2.77,4.75,9.86-2,61.67-59.81,61.67-59.81,4.93-3.08-1.85-8.94-22.66-21.59-22.66-21.59Z"/><path class="cls-2" d="M2.16,169.93s-3.77,10.33,6.71,15.57,123.44,56.11,123.44,56.11,9.14,3.4,13.45-2,30.64-39,30.64-39v-8.71L28.83,138Z"/><path class="cls-1" d="M28.83,138,3,169.93s-4.31,2,6.48,8.32,123.32,55.34,123.32,55.34,5.86,5.24,13.26-3.39,30.33-38.31,30.33-38.31Z"/></g><g id="鸡1"><path class="cls-4" d="M45,134.78s12.26-75.27,47.4-75.09c16.65,0,27.52,41.56,28.21,64.45S105.37,154,105.37,154Z"/><circle class="cls-5" cx="78.32" cy="74.58" r="2.83"/><circle class="cls-5" cx="93.58" cy="75.57" r="2.83"/><path class="cls-6" d="M85.49,71.75s-17.35-16.1-2.95-12.58c-7.05-4.63-1.45-12,2.95-5.09,0-6.48,6.24-16,11.1,2.31C96.41,60.78,87.11,71.38,85.49,71.75Z"/><polygon class="cls-7" points="84.1 80.44 73.92 85.71 84.56 93.98 95.2 87.14 84.1 80.44"/><path class="cls-3" d="M55.43,120.91s-.93,7.63-3.24,9"/><path class="cls-3" d="M68.14,122.75s-3.23,8.33,0,11.1"/><path class="cls-3" d="M81.15,126.91s1.1,4.86-1,6.94"/><path class="cls-3" d="M90.75,125.41s-2.49,5.67-1.33,8.44"/><path class="cls-3" d="M97.74,126.91s1.39,6,3.24,6.94"/><path class="cls-3" d="M110.69,122.75a11.89,11.89,0,0,1,0,6.88"/><path class="cls-3" d="M60.28,125.41a4.11,4.11,0,0,0-.92,4.51"/></g><g id="鸭子"><path class="cls-8" d="M122.48,12s7.17-10.5,19.43-10.5,25.67,5.17,28.67,35.93-11,71.44-2.47,89.48-17.88,43-17.88,43l-44.86-16s-2.54-14.8,20.58-34.22,19.89-49,12-59.43S106.76,41.37,122.48,12Z"/><circle class="cls-5" cx="135.15" cy="17.25" r="2.83"/><path class="cls-9" d="M125.49,21s-2.5.69-6.37,1.59c-7.31,1.69-19.49,4.13-29,4.13-14.57,0-3.93,7.46,3.24,10s32.6,4.64,48.56-2.89C141.91,28,125.26,30.72,125.49,21Z"/></g><g id="鸡2"><path class="cls-10" d="M151.39,168.54s2.54-92.26,39.77-93c0,0,19.19-1.62,20.81,28.33s9.25,35.49,9.25,35.49l-47.4,38.85Z"/><path class="cls-6" d="M182.55,98.7c-4.05,0-9.42,1.57-9.42,4.52s5.78,5.19,9.48,5.2,10.34-1.5,10.34-4.86S186.6,98.71,182.55,98.7Z"/><path class="cls-3" d="M159.94,147.73s-2.77,7.55.31,12.33"/><path class="cls-3" d="M168.12,148.5s-.31,8.94,2.46,10.94"/><path class="cls-3" d="M179.37,147.73s2.77,6.78,0,9.71"/><path class="cls-3" d="M187.69,145.88s4.74,7.4,1,12.14"/><path class="cls-3" d="M197.87,145.88s-1.74,6.7,0,9.71"/><path class="cls-3" d="M204.69,145.88a6,6,0,0,0,.12,6"/><circle class="cls-5" cx="194.44" cy="92.42" r="3.28"/><circle class="cls-5" cx="176.4" cy="92.42" r="3.28"/><path class="cls-6" d="M183.07,87.73s-16-7.75-11.79-15.15,10.4,1.62,10.4,1.62-3.24-18.26,3-17.69,4.85,9.7,4.85,9.7,1.62-13.74,8.56-9.7,6,14.68,2.54,18.61S188.62,86.7,183.07,87.73Z"/></g></g></g></g></svg>